<mxfile host="app.diagrams.net" modified="2021-04-01T17:39:44.266Z" agent="5.0 (Windows NT 10.0; Win64; x64) AppleWebKit/537.36 (KHTML, like Gecko) Chrome/89.0.4389.90 Safari/537.36" etag="pr2KQk_3JZMm5FGQg5Ns" version="14.5.3" type="github">
  <diagram id="O2sK1PGACHp_l--i0Y8_" name="Page-1">
    <mxGraphModel dx="981" dy="526" grid="1" gridSize="10" guides="1" tooltips="1" connect="1" arrows="1" fold="1" page="1" pageScale="1" pageWidth="850" pageHeight="1100" math="0" shadow="0">
      <root>
        <mxCell id="0" />
        <mxCell id="1" parent="0" />
        <mxCell id="lEs_3_VXubgsTOfFpbnG-18" value="" style="edgeStyle=orthogonalEdgeStyle;orthogonalLoop=1;jettySize=auto;html=1;shadow=0;strokeWidth=1;fontStyle=0" parent="1" edge="1">
          <mxGeometry relative="1" as="geometry">
            <mxPoint x="80" y="140" as="sourcePoint" />
            <mxPoint x="80" y="170" as="targetPoint" />
          </mxGeometry>
        </mxCell>
        <mxCell id="lEs_3_VXubgsTOfFpbnG-20" value="" style="edgeStyle=orthogonalEdgeStyle;orthogonalLoop=1;jettySize=auto;html=1;entryX=0.5;entryY=0;entryDx=0;entryDy=0;shadow=0;strokeWidth=1;fontStyle=0" parent="1" edge="1">
          <mxGeometry relative="1" as="geometry">
            <mxPoint x="80" y="280" as="sourcePoint" />
            <mxPoint x="80" y="310" as="targetPoint" />
          </mxGeometry>
        </mxCell>
        <mxCell id="lEs_3_VXubgsTOfFpbnG-19" value="" style="edgeStyle=orthogonalEdgeStyle;orthogonalLoop=1;jettySize=auto;html=1;entryX=0.5;entryY=0;entryDx=0;entryDy=0;shadow=0;strokeWidth=1;fontStyle=0" parent="1" edge="1">
          <mxGeometry relative="1" as="geometry">
            <mxPoint x="80" y="210" as="sourcePoint" />
            <mxPoint x="80" y="240" as="targetPoint" />
          </mxGeometry>
        </mxCell>
        <mxCell id="lEs_3_VXubgsTOfFpbnG-72" value="" style="edgeStyle=orthogonalEdgeStyle;rounded=1;orthogonalLoop=1;jettySize=auto;html=1;exitX=0.503;exitY=0.787;exitDx=0;exitDy=0;exitPerimeter=0;entryX=0;entryY=0.5;entryDx=0;entryDy=0;shadow=0;strokeWidth=1;fontStyle=0" parent="1" source="lEs_3_VXubgsTOfFpbnG-8" target="lEs_3_VXubgsTOfFpbnG-94" edge="1">
          <mxGeometry relative="1" as="geometry">
            <mxPoint x="320" y="320" as="targetPoint" />
            <Array as="points">
              <mxPoint x="260" y="310" />
            </Array>
          </mxGeometry>
        </mxCell>
        <mxCell id="lEs_3_VXubgsTOfFpbnG-8" value="Voltage &lt;br&gt;Regulator" style="whiteSpace=wrap;html=1;rounded=1;shape=isoRectangle;shadow=1;strokeWidth=1;fillColor=#f8cecc;strokeColor=#b85450;fontStyle=0" parent="1" vertex="1">
          <mxGeometry x="200" y="160" width="120" height="100" as="geometry" />
        </mxCell>
        <mxCell id="lEs_3_VXubgsTOfFpbnG-41" value="" style="edgeStyle=orthogonalEdgeStyle;orthogonalLoop=1;jettySize=auto;html=1;shadow=0;strokeWidth=1;fontStyle=0" parent="1" target="lEs_3_VXubgsTOfFpbnG-14" edge="1">
          <mxGeometry relative="1" as="geometry">
            <mxPoint x="520" y="190" as="sourcePoint" />
          </mxGeometry>
        </mxCell>
        <mxCell id="lEs_3_VXubgsTOfFpbnG-89" value="" style="edgeStyle=orthogonalEdgeStyle;rounded=0;orthogonalLoop=1;jettySize=auto;html=1;shadow=0;strokeWidth=1;fontStyle=0" parent="1" target="lEs_3_VXubgsTOfFpbnG-87" edge="1">
          <mxGeometry relative="1" as="geometry">
            <mxPoint x="400" y="260" as="sourcePoint" />
            <Array as="points">
              <mxPoint x="430" y="260" />
              <mxPoint x="430" y="260" />
            </Array>
          </mxGeometry>
        </mxCell>
        <mxCell id="lEs_3_VXubgsTOfFpbnG-27" value="" style="edgeStyle=orthogonalEdgeStyle;orthogonalLoop=1;jettySize=auto;html=1;shadow=0;strokeWidth=1;fontStyle=0;entryX=0;entryY=0.5;entryDx=0;entryDy=0;entryPerimeter=0;" parent="1" source="lEs_3_VXubgsTOfFpbnG-14" target="lEs_3_VXubgsTOfFpbnG-84" edge="1">
          <mxGeometry relative="1" as="geometry">
            <mxPoint x="600" y="120" as="targetPoint" />
          </mxGeometry>
        </mxCell>
        <mxCell id="lEs_3_VXubgsTOfFpbnG-14" value="Motor Driver" style="whiteSpace=wrap;html=1;glass=0;rounded=1;strokeWidth=1;shadow=1;fillColor=#f8cecc;strokeColor=#b85450;fontStyle=0" parent="1" vertex="1">
          <mxGeometry x="480" y="100" width="80" height="40" as="geometry" />
        </mxCell>
        <mxCell id="lEs_3_VXubgsTOfFpbnG-88" value="" style="edgeStyle=orthogonalEdgeStyle;rounded=0;orthogonalLoop=1;jettySize=auto;html=1;shadow=0;strokeWidth=1;fontStyle=0;exitX=1;exitY=0.5;exitDx=0;exitDy=0;" parent="1" target="lEs_3_VXubgsTOfFpbnG-87" edge="1" source="lEs_3_VXubgsTOfFpbnG-94">
          <mxGeometry relative="1" as="geometry">
            <mxPoint x="400" y="320" as="sourcePoint" />
            <Array as="points">
              <mxPoint x="430" y="310" />
              <mxPoint x="430" y="310" />
            </Array>
          </mxGeometry>
        </mxCell>
        <mxCell id="lEs_3_VXubgsTOfFpbnG-49" value="" style="edgeStyle=segmentEdgeStyle;endArrow=classic;html=1;entryX=0;entryY=0.5;entryDx=0;entryDy=0;shadow=0;strokeWidth=1;fontStyle=0" parent="1" target="lEs_3_VXubgsTOfFpbnG-8" edge="1">
          <mxGeometry width="50" height="50" relative="1" as="geometry">
            <mxPoint x="120" y="330" as="sourcePoint" />
            <mxPoint x="200" y="190" as="targetPoint" />
            <Array as="points">
              <mxPoint x="120" y="330" />
              <mxPoint x="160" y="330" />
              <mxPoint x="160" y="210" />
            </Array>
          </mxGeometry>
        </mxCell>
        <mxCell id="lEs_3_VXubgsTOfFpbnG-50" value="" style="edgeStyle=segmentEdgeStyle;endArrow=classic;html=1;entryX=0;entryY=0.5;entryDx=0;entryDy=0;shadow=0;strokeWidth=1;fontStyle=0" parent="1" target="lEs_3_VXubgsTOfFpbnG-14" edge="1">
          <mxGeometry width="50" height="50" relative="1" as="geometry">
            <mxPoint x="160" y="230" as="sourcePoint" />
            <mxPoint x="460" y="140" as="targetPoint" />
            <Array as="points">
              <mxPoint x="160" y="120" />
            </Array>
          </mxGeometry>
        </mxCell>
        <mxCell id="lEs_3_VXubgsTOfFpbnG-51" value="" style="edgeStyle=segmentEdgeStyle;endArrow=classic;html=1;exitX=1;exitY=0.5;exitDx=0;exitDy=0;entryX=-0.021;entryY=0.139;entryDx=0;entryDy=0;entryPerimeter=0;shadow=0;strokeWidth=1;fontStyle=0" parent="1" source="lEs_3_VXubgsTOfFpbnG-8" target="lEs_3_VXubgsTOfFpbnG-95" edge="1">
          <mxGeometry width="50" height="50" relative="1" as="geometry">
            <mxPoint x="290" y="190" as="sourcePoint" />
            <mxPoint x="440" y="210.0200000000001" as="targetPoint" />
            <Array as="points">
              <mxPoint x="360" y="210" />
            </Array>
          </mxGeometry>
        </mxCell>
        <mxCell id="lEs_3_VXubgsTOfFpbnG-73" value="" style="edgeStyle=segmentEdgeStyle;endArrow=classic;html=1;entryX=0;entryY=0.5;entryDx=0;entryDy=0;exitX=0.512;exitY=0.846;exitDx=0;exitDy=0;exitPerimeter=0;shadow=0;strokeWidth=1;fontStyle=0" parent="1" source="lEs_3_VXubgsTOfFpbnG-8" target="lEs_3_VXubgsTOfFpbnG-93" edge="1">
          <mxGeometry width="50" height="50" relative="1" as="geometry">
            <mxPoint x="260" y="250" as="sourcePoint" />
            <mxPoint x="320" y="260" as="targetPoint" />
            <Array as="points">
              <mxPoint x="260" y="245" />
              <mxPoint x="260" y="260" />
            </Array>
          </mxGeometry>
        </mxCell>
        <mxCell id="lEs_3_VXubgsTOfFpbnG-77" value="12 VDC" style="strokeWidth=1;html=1;shape=mxgraph.flowchart.delay;whiteSpace=wrap;rounded=1;shadow=1;glass=0;fillColor=#dae8fc;strokeColor=#6c8ebf;fontStyle=0;fontFamily=Helvetica;" parent="1" vertex="1">
          <mxGeometry x="40" y="100" width="80" height="40" as="geometry" />
        </mxCell>
        <mxCell id="lEs_3_VXubgsTOfFpbnG-78" value="Fuse" style="strokeWidth=1;html=1;shape=mxgraph.flowchart.delay;whiteSpace=wrap;rounded=1;shadow=1;glass=0;fillColor=#dae8fc;strokeColor=#6c8ebf;fontStyle=0;fontFamily=Helvetica;" parent="1" vertex="1">
          <mxGeometry x="40" y="170" width="80" height="40" as="geometry" />
        </mxCell>
        <mxCell id="lEs_3_VXubgsTOfFpbnG-79" value="Bumper PB" style="strokeWidth=1;html=1;shape=mxgraph.flowchart.delay;whiteSpace=wrap;rounded=1;shadow=1;glass=0;fillColor=#dae8fc;strokeColor=#6c8ebf;fontStyle=0;fontFamily=Helvetica;" parent="1" vertex="1">
          <mxGeometry x="40" y="240" width="80" height="40" as="geometry" />
        </mxCell>
        <mxCell id="lEs_3_VXubgsTOfFpbnG-80" value="Emergency PB" style="strokeWidth=1;html=1;shape=mxgraph.flowchart.delay;whiteSpace=wrap;rounded=1;shadow=1;glass=0;fillColor=#dae8fc;strokeColor=#6c8ebf;fontStyle=0;fontFamily=Helvetica;" parent="1" vertex="1">
          <mxGeometry x="40" y="310" width="80" height="40" as="geometry" />
        </mxCell>
        <mxCell id="lEs_3_VXubgsTOfFpbnG-84" value="Motors (x2)" style="strokeWidth=1;html=1;shape=mxgraph.flowchart.stored_data;whiteSpace=wrap;rounded=1;shadow=1;glass=0;fillColor=#dae8fc;strokeColor=#6c8ebf;fontStyle=0" parent="1" vertex="1">
          <mxGeometry x="640" y="100" width="90" height="40" as="geometry" />
        </mxCell>
        <mxCell id="lEs_3_VXubgsTOfFpbnG-85" value="LCD Screen" style="strokeWidth=1;html=1;shape=mxgraph.flowchart.stored_data;whiteSpace=wrap;rounded=1;shadow=1;glass=0;fillColor=#dae8fc;strokeColor=#6c8ebf;fontStyle=0" parent="1" vertex="1">
          <mxGeometry x="640" y="240" width="90" height="40" as="geometry" />
        </mxCell>
        <mxCell id="lEs_3_VXubgsTOfFpbnG-86" value="PixyCamera" style="strokeWidth=1;html=1;shape=mxgraph.flowchart.stored_data;whiteSpace=wrap;rounded=1;shadow=1;glass=0;fillColor=#dae8fc;strokeColor=#6c8ebf;fontStyle=0" parent="1" vertex="1">
          <mxGeometry x="640" y="290" width="90" height="40" as="geometry" />
        </mxCell>
        <mxCell id="lEs_3_VXubgsTOfFpbnG-90" value="" style="edgeStyle=orthogonalEdgeStyle;rounded=0;orthogonalLoop=1;jettySize=auto;html=1;shadow=0;strokeWidth=1;fontStyle=0" parent="1" source="lEs_3_VXubgsTOfFpbnG-87" target="lEs_3_VXubgsTOfFpbnG-85" edge="1">
          <mxGeometry relative="1" as="geometry">
            <Array as="points">
              <mxPoint x="570" y="260" />
              <mxPoint x="570" y="260" />
            </Array>
          </mxGeometry>
        </mxCell>
        <mxCell id="lEs_3_VXubgsTOfFpbnG-87" value="RPi" style="rounded=1;whiteSpace=wrap;html=1;absoluteArcSize=1;arcSize=14;strokeWidth=1;shadow=1;glass=0;fillColor=#d5e8d4;strokeColor=#82b366;fontStyle=0" parent="1" vertex="1">
          <mxGeometry x="480" y="190" width="80" height="150" as="geometry" />
        </mxCell>
        <mxCell id="lEs_3_VXubgsTOfFpbnG-91" value="" style="endArrow=classic;startArrow=classic;html=1;shadow=0;strokeWidth=1;fontStyle=0;entryX=0;entryY=0.5;entryDx=0;entryDy=0;entryPerimeter=0;exitX=1;exitY=0.8;exitDx=0;exitDy=0;exitPerimeter=0;" parent="1" source="lEs_3_VXubgsTOfFpbnG-95" target="lEs_3_VXubgsTOfFpbnG-86" edge="1">
          <mxGeometry width="50" height="50" relative="1" as="geometry">
            <mxPoint x="580" y="330" as="sourcePoint" />
            <mxPoint x="600" y="320" as="targetPoint" />
          </mxGeometry>
        </mxCell>
        <mxCell id="lEs_3_VXubgsTOfFpbnG-92" value="Voltage &lt;br&gt;Regulator" style="whiteSpace=wrap;html=1;rounded=1;shape=isoRectangle;shadow=1;strokeWidth=1;fillColor=#f8cecc;strokeColor=#b85450;fontStyle=0" parent="1" vertex="1">
          <mxGeometry x="200" y="160" width="120" height="100" as="geometry" />
        </mxCell>
        <mxCell id="lEs_3_VXubgsTOfFpbnG-93" value="Ultrasonic Sensors (x3)" style="whiteSpace=wrap;html=1;rounded=1;shadow=1;strokeWidth=1;fillColor=#d5e8d4;strokeColor=#82b366;fontStyle=0" parent="1" vertex="1">
          <mxGeometry x="345" y="240" width="80" height="40" as="geometry" />
        </mxCell>
        <mxCell id="lEs_3_VXubgsTOfFpbnG-94" value="IR Receiver" style="whiteSpace=wrap;html=1;rounded=1;shadow=1;strokeWidth=1;fillColor=#d5e8d4;strokeColor=#82b366;fontStyle=0" parent="1" vertex="1">
          <mxGeometry x="345" y="290" width="80" height="40" as="geometry" />
        </mxCell>
        <mxCell id="lEs_3_VXubgsTOfFpbnG-95" value="RPi" style="rounded=1;whiteSpace=wrap;html=1;absoluteArcSize=1;arcSize=14;strokeWidth=1;shadow=1;glass=0;fillColor=#d5e8d4;strokeColor=#82b366;fontStyle=0" parent="1" vertex="1">
          <mxGeometry x="480" y="190" width="80" height="150" as="geometry" />
        </mxCell>
        <mxCell id="lEs_3_VXubgsTOfFpbnG-97" value="" style="shape=image;html=1;verticalAlign=top;verticalLabelPosition=bottom;labelBackgroundColor=#ffffff;imageAspect=0;aspect=fixed;image=https://cdn0.iconfinder.com/data/icons/google-material-design-3-0/48/ic_settings_remote_48px-128.png;rounded=1;shadow=1;glass=0;strokeWidth=1;fillColor=#ffffff;gradientColor=#ffffff;fontFamily=Helvetica;fontStyle=0" parent="1" vertex="1">
          <mxGeometry x="230" y="320" width="20" height="20" as="geometry" />
        </mxCell>
        <mxCell id="lEs_3_VXubgsTOfFpbnG-98" value="Remote Controller" style="whiteSpace=wrap;html=1;rounded=1;shadow=1;strokeWidth=1;fillColor=#d5e8d4;strokeColor=#82b366;fontStyle=0" parent="1" vertex="1">
          <mxGeometry x="200" y="340" width="80" height="40" as="geometry" />
        </mxCell>
        <mxCell id="lEs_3_VXubgsTOfFpbnG-99" value="" style="endArrow=none;dashed=1;html=1;dashPattern=1 3;strokeWidth=1;shadow=0;fontFamily=Helvetica;entryX=0;entryY=0.75;entryDx=0;entryDy=0;fontStyle=0" parent="1" target="lEs_3_VXubgsTOfFpbnG-94" edge="1">
          <mxGeometry width="50" height="50" relative="1" as="geometry">
            <mxPoint x="250" y="320" as="sourcePoint" />
            <mxPoint x="360" y="340" as="targetPoint" />
            <Array as="points">
              <mxPoint x="290" y="320" />
            </Array>
          </mxGeometry>
        </mxCell>
        <mxCell id="UBgB7orRhs9B8YyQQlLZ-1" value="Buzzer" style="strokeWidth=1;html=1;shape=mxgraph.flowchart.stored_data;whiteSpace=wrap;rounded=1;shadow=1;glass=0;fillColor=#dae8fc;strokeColor=#6c8ebf;fontStyle=0" vertex="1" parent="1">
          <mxGeometry x="640" y="190" width="90" height="40" as="geometry" />
        </mxCell>
        <mxCell id="UBgB7orRhs9B8YyQQlLZ-2" value="" style="edgeStyle=orthogonalEdgeStyle;rounded=0;orthogonalLoop=1;jettySize=auto;html=1;shadow=0;strokeWidth=1;fontStyle=0;entryX=0;entryY=0.5;entryDx=0;entryDy=0;entryPerimeter=0;" edge="1" parent="1" target="UBgB7orRhs9B8YyQQlLZ-1">
          <mxGeometry relative="1" as="geometry">
            <Array as="points">
              <mxPoint x="570" y="209" />
              <mxPoint x="640" y="210" />
            </Array>
            <mxPoint x="560" y="209.31" as="sourcePoint" />
            <mxPoint x="640" y="209.31" as="targetPoint" />
          </mxGeometry>
        </mxCell>
      </root>
    </mxGraphModel>
  </diagram>
</mxfile>
